<svg t="1565229596175" class="icon" viewBox="0 0 1024 1024" version="1.1" xmlns="http://www.w3.org/2000/svg" p-id="6895" width="400" height="400"><path d="M211.367854 847.941166s285.096756-299.288718 672.591212-212.52014l-7.904384 320.307193-628.75781 17.964509z" fill="#ffffff" p-id="6896"></path><path d="M298.675367 1017.346485a114.074631 114.074631 0 0 1-115.152502-115.152502v-144.973587H126.036437A28.383924 28.383924 0 0 1 126.036437 700.632194h57.486428v-160.24342H126.036437a28.383924 28.383924 0 0 1 0-56.767848h57.486428V323.377507H126.036437a28.563569 28.563569 0 0 1 0-56.947493h173.35751a28.563569 28.563569 0 0 1 0 56.947493H240.290713v159.884129h58.384654a28.383924 28.383924 0 1 1 0 56.767848H240.290713V700.632194h58.384654a28.383924 28.383924 0 1 1 0 56.767848H240.290713v144.973586a59.821815 59.821815 0 0 0 58.384654 58.205009h520.970757a59.642169 59.642169 0 0 0 58.205009-58.205009V121.815718a59.642169 59.642169 0 0 0-58.205009-58.205009h-520.970757a59.821815 59.821815 0 0 0-58.384654 58.205009v71.858035H183.522865v-71.858035a113.894986 113.894986 0 0 1 115.152502-114.972857h520.970757A113.894986 113.894986 0 0 1 934.439336 121.815718v780.378265a114.074631 114.074631 0 0 1-115.152502 115.152502z" fill="#ffffff" p-id="6897"></path><path d="M818.927544 13.489729a107.787053 107.787053 0 0 1 107.787053 107.787054v780.9172a107.787053 107.787053 0 0 1-107.787053 107.787053h-520.970757a107.787053 107.787053 0 0 1-107.787054-107.787053v-151.8001H126.036437a21.737056 21.737056 0 1 1 0-43.294466h64.312941v-173.357511H126.036437a21.737056 21.737056 0 0 1 0-43.474111h64.312941v-173.357511H126.036437a21.737056 21.737056 0 1 1 0-43.294466h173.35751a21.737056 21.737056 0 1 1 0 43.294466H233.82349v173.357511h65.031522a21.737056 21.737056 0 0 1 0 43.474111H233.82349v173.357511h65.031522a21.737056 21.737056 0 1 1 0 43.294466H233.82349v151.8001a66.648328 66.648328 0 0 0 65.031522 65.031522h520.970757a66.648328 66.648328 0 0 0 65.031522-65.031522V121.815718a66.648328 66.648328 0 0 0-65.031522-65.031522h-520.970757A66.648328 66.648328 0 0 0 233.82349 121.815718v65.031522H190.349378V121.815718a107.787053 107.787053 0 0 1 107.787054-107.787053h520.970757m0-13.473382h-520.970757a120.541854 120.541854 0 0 0-121.260435 121.260435v78.504904h70.241229V121.815718a52.815656 52.815656 0 0 1 51.558141-51.558141h520.970757a52.815656 52.815656 0 0 1 51.55814 51.558141v780.378265a52.815656 52.815656 0 0 1-51.55814 51.55814h-520.970757a52.815656 52.815656 0 0 1-51.558141-51.55814v-138.326718h51.558141a35.929018 35.929018 0 1 0 0-70.24123H247.117226v-146.410747h51.558141a35.929018 35.929018 0 0 0 0-70.420875H247.117226v-146.410747h51.558141a35.929018 35.929018 0 1 0 0-70.24123H126.036437a35.929018 35.929018 0 1 0 0 70.24123h50.83956v146.410747H126.036437a35.929018 35.929018 0 0 0 0 70.420875h50.83956v146.410747H126.036437a35.929018 35.929018 0 1 0 0 70.24123h50.83956v138.326718A120.541854 120.541854 0 0 0 298.675367 1023.993353h520.970757a120.541854 120.541854 0 0 0 121.79937-121.79937V121.815718A120.541854 120.541854 0 0 0 818.927544 0.016348z" fill="#ffffff" p-id="6898"></path><path d="M756.590698 246.130119H481.194777a32.695406 32.695406 0 0 0-34.491857 34.491857 32.695406 32.695406 0 0 0 34.491857 34.491857H756.590698a32.695406 32.695406 0 0 0 34.132567-34.491857 32.695406 32.695406 0 0 0-34.132567-34.491857zM618.802915 383.917902h-137.608138a34.491857 34.491857 0 1 0 0 68.804069h137.608138a34.491857 34.491857 0 1 0 0-68.804069z" fill="#ffffff" p-id="6899"></path></svg>