<svg t="1565229174563" class="icon" viewBox="0 0 1024 1024" version="1.1" xmlns="http://www.w3.org/2000/svg" p-id="5301" width="600" height="600"><path d="M832 981.333333H597.333333V597.333333a21.333333 21.333333 0 0 0-21.333333-21.333333h-128a21.333333 21.333333 0 0 0-21.333333 21.333333v384H192a64 64 0 0 1-64-64V576H51.413333A42.666667 42.666667 0 0 1 21.333333 503.253333L466.773333 57.813333a64 64 0 0 1 90.453334 0L1002.666667 503.253333A42.666667 42.666667 0 0 1 972.586667 576H896v341.333333a64 64 0 0 1-64 64z m-192-42.666666h192a21.333333 21.333333 0 0 0 21.333333-21.333334V533.333333h119.253334L527.146667 87.893333a21.333333 21.333333 0 0 0-30.08 0L51.413333 533.333333H170.666667v384a21.333333 21.333333 0 0 0 21.333333 21.333334h192V597.333333a64 64 0 0 1 64-64h128a64 64 0 0 1 64 64z" p-id="5302" fill="#ffffff"></path></svg>